<?xml version="1.0" encoding="utf-8"?>
<!-- Generator: Adobe Illustrator 27.1.1, SVG Export Plug-In . SVG Version: 6.00 Build 0)  -->
<svg version="1.1" id="Layer_2_00000022530868758753966520000006726966019554753924_"
	 xmlns="http://www.w3.org/2000/svg" xmlns:xlink="http://www.w3.org/1999/xlink" x="0px" y="0px" viewBox="0 0 1012.5 877.5"
	 style="enable-background:new 0 0 1012.5 877.5;" xml:space="preserve">
<style type="text/css">
	.st0{fill:#D6EA5E;}
	.st1{fill:#3F5DBA;}
</style>
<g id="Layer_5">
	<g>
		<rect x="202.5" class="st0" width="67.5" height="67.5"/>
		<rect x="270" class="st0" width="67.5" height="67.5"/>
		<rect x="337.5" class="st0" width="67.5" height="67.5"/>
		<rect x="405" class="st0" width="67.5" height="67.5"/>
		<rect x="472.5" class="st0" width="67.5" height="67.5"/>
		<rect x="540" class="st0" width="67.5" height="67.5"/>
		<rect x="607.5" class="st0" width="67.5" height="67.5"/>
		<rect x="675" class="st0" width="67.5" height="67.5"/>
		<rect x="67.5" y="67.5" class="st0" width="67.5" height="67.5"/>
		<rect x="135" y="67.5" class="st0" width="67.5" height="67.5"/>
		<rect x="202.5" y="67.5" class="st1" width="67.5" height="67.5"/>
		<rect x="270" y="67.5" class="st1" width="67.5" height="67.5"/>
		<rect x="337.5" y="67.5" class="st1" width="67.5" height="67.5"/>
		<rect x="405" y="67.5" class="st1" width="67.5" height="67.5"/>
		<rect x="472.5" y="67.5" class="st1" width="67.5" height="67.5"/>
		<rect x="540" y="67.5" class="st1" width="67.5" height="67.5"/>
		<rect x="607.5" y="67.5" class="st1" width="67.5" height="67.5"/>
		<rect x="675" y="67.5" class="st1" width="67.5" height="67.5"/>
		<rect x="742.5" y="67.5" class="st0" width="67.5" height="67.5"/>
		<rect x="810" y="67.5" class="st0" width="67.5" height="67.5"/>
		<rect x="67.5" y="135" class="st0" width="67.5" height="67.5"/>
		<rect x="135" y="135" class="st1" width="67.5" height="67.5"/>
		<rect x="202.5" y="135" class="st1" width="67.5" height="67.5"/>
		<rect x="270" y="135" class="st1" width="67.5" height="67.5"/>
		<rect x="337.5" y="135" class="st1" width="67.5" height="67.5"/>
		<rect x="405" y="135" class="st1" width="67.5" height="67.5"/>
		<rect x="472.5" y="135" class="st1" width="67.5" height="67.5"/>
		<rect x="540" y="135" class="st1" width="67.5" height="67.5"/>
		<rect x="607.5" y="135" class="st1" width="67.5" height="67.5"/>
		<rect x="675" y="135" class="st1" width="67.5" height="67.5"/>
		<rect x="742.5" y="135" class="st1" width="67.5" height="67.5"/>
		<rect x="810" y="135" class="st0" width="67.5" height="67.5"/>
		<rect x="877.5" y="135" class="st0" width="67.5" height="67.5"/>
		<rect y="202.5" class="st0" width="67.5" height="67.5"/>
		<rect x="67.5" y="202.5" class="st1" width="67.5" height="67.5"/>
		<rect x="135" y="202.5" class="st1" width="67.5" height="67.5"/>
		<rect x="202.5" y="202.5" class="st1" width="67.5" height="67.5"/>
		<rect x="270" y="202.5" class="st1" width="67.5" height="67.5"/>
		<rect x="337.5" y="202.5" class="st1" width="67.5" height="67.5"/>
		<rect x="405" y="202.5" class="st1" width="67.5" height="67.5"/>
		<rect x="472.5" y="202.5" class="st1" width="67.5" height="67.5"/>
		<rect x="540" y="202.5" class="st1" width="67.5" height="67.5"/>
		<rect x="607.5" y="202.5" class="st1" width="67.5" height="67.5"/>
		<rect x="675" y="202.5" class="st1" width="67.5" height="67.5"/>
		<rect x="742.5" y="202.5" class="st1" width="67.5" height="67.5"/>
		<rect x="810" y="202.5" class="st1" width="67.5" height="67.5"/>
		<rect x="877.5" y="202.5" class="st1" width="67.5" height="67.5"/>
		<rect x="945" y="202.5" class="st0" width="67.5" height="67.5"/>
		<rect y="270" class="st0" width="67.5" height="67.5"/>
		<rect x="67.5" y="270" class="st1" width="67.5" height="67.5"/>
		<rect x="135" y="270" class="st1" width="67.5" height="67.5"/>
		<rect x="202.5" y="270" class="st0" width="67.5" height="67.5"/>
		<rect x="270" y="270" class="st0" width="67.5" height="67.5"/>
		<rect x="337.5" y="270" class="st0" width="67.5" height="67.5"/>
		<rect x="405" y="270" class="st0" width="67.5" height="67.5"/>
		<rect x="472.5" y="270" class="st0" width="67.5" height="67.5"/>
		<rect x="540" y="270" class="st0" width="67.5" height="67.5"/>
		<rect x="607.5" y="270" class="st0" width="67.5" height="67.5"/>
		<rect x="675" y="270" class="st0" width="67.5" height="67.5"/>
		<rect x="742.5" y="270" class="st0" width="67.5" height="67.5"/>
		<rect x="810" y="270" class="st1" width="67.5" height="67.5"/>
		<rect x="877.5" y="270" class="st1" width="67.5" height="67.5"/>
		<rect x="945" y="270" class="st0" width="67.5" height="67.5"/>
		<rect y="337.5" class="st0" width="67.5" height="67.5"/>
		<rect x="67.5" y="337.5" class="st1" width="67.5" height="67.5"/>
		<rect x="135" y="337.5" class="st1" width="67.5" height="67.5"/>
		<rect x="202.5" y="337.5" class="st1" width="67.5" height="67.5"/>
		<rect x="270" y="337.5" class="st1" width="67.5" height="67.5"/>
		<rect x="337.5" y="337.5" class="st1" width="67.5" height="67.5"/>
		<rect x="405" y="337.5" class="st1" width="67.5" height="67.5"/>
		<rect x="472.5" y="337.5" class="st1" width="67.5" height="67.5"/>
		<rect x="540" y="337.5" class="st1" width="67.5" height="67.5"/>
		<rect x="607.5" y="337.5" class="st1" width="67.5" height="67.5"/>
		<rect x="675" y="337.5" class="st1" width="67.5" height="67.5"/>
		<rect x="742.5" y="337.5" class="st1" width="67.5" height="67.5"/>
		<rect x="810" y="337.5" class="st1" width="67.5" height="67.5"/>
		<rect x="877.5" y="337.5" class="st1" width="67.5" height="67.5"/>
		<rect x="945" y="337.5" class="st0" width="67.5" height="67.5"/>
		<rect y="405" class="st0" width="67.5" height="67.5"/>
		<rect x="67.5" y="405" class="st1" width="67.5" height="67.5"/>
		<rect x="135" y="405" class="st1" width="67.5" height="67.5"/>
		<rect x="202.5" y="405" class="st1" width="67.5" height="67.5"/>
		<rect x="270" y="405" class="st1" width="67.5" height="67.5"/>
		<rect x="337.5" y="405" class="st1" width="67.5" height="67.5"/>
		<rect x="405" y="405" class="st1" width="67.5" height="67.5"/>
		<rect x="472.5" y="405" class="st1" width="67.5" height="67.5"/>
		<rect x="540" y="405" class="st1" width="67.5" height="67.5"/>
		<rect x="607.5" y="405" class="st1" width="67.5" height="67.5"/>
		<rect x="675" y="405" class="st1" width="67.5" height="67.5"/>
		<rect x="742.5" y="405" class="st1" width="67.5" height="67.5"/>
		<rect x="810" y="405" class="st1" width="67.5" height="67.5"/>
		<rect x="877.5" y="405" class="st1" width="67.5" height="67.5"/>
		<rect x="945" y="405" class="st0" width="67.5" height="67.5"/>
		<rect y="472.5" class="st0" width="67.5" height="67.5"/>
		<rect x="67.5" y="472.5" class="st1" width="67.5" height="67.5"/>
		<rect x="135" y="472.5" class="st1" width="67.5" height="67.5"/>
		<rect x="202.5" y="472.5" class="st0" width="67.5" height="67.5"/>
		<rect x="270" y="472.5" class="st0" width="67.5" height="67.5"/>
		<rect x="337.5" y="472.5" class="st0" width="67.5" height="67.5"/>
		<rect x="405" y="472.5" class="st0" width="67.5" height="67.5"/>
		<rect x="472.5" y="472.5" class="st0" width="67.5" height="67.5"/>
		<rect x="540" y="472.5" class="st0" width="67.5" height="67.5"/>
		<rect x="607.5" y="472.5" class="st0" width="67.5" height="67.5"/>
		<rect x="675" y="472.5" class="st0" width="67.5" height="67.5"/>
		<rect x="742.5" y="472.5" class="st0" width="67.5" height="67.5"/>
		<rect x="810" y="472.5" class="st1" width="67.5" height="67.5"/>
		<rect x="877.5" y="472.5" class="st1" width="67.5" height="67.5"/>
		<rect x="945" y="472.5" class="st0" width="67.5" height="67.5"/>
		<rect y="540" class="st0" width="67.5" height="67.5"/>
		<rect x="67.5" y="540" class="st0" width="67.5" height="67.5"/>
		<rect x="135" y="540" class="st1" width="67.5" height="67.5"/>
		<rect x="202.5" y="540" class="st1" width="67.5" height="67.5"/>
		<rect x="270" y="540" class="st1" width="67.5" height="67.5"/>
		<rect x="337.5" y="540" class="st1" width="67.5" height="67.5"/>
		<rect x="405" y="540" class="st1" width="67.5" height="67.5"/>
		<rect x="472.5" y="540" class="st1" width="67.5" height="67.5"/>
		<rect x="540" y="540" class="st1" width="67.5" height="67.5"/>
		<rect x="607.5" y="540" class="st1" width="67.5" height="67.5"/>
		<rect x="675" y="540" class="st1" width="67.5" height="67.5"/>
		<rect x="742.5" y="540" class="st1" width="67.5" height="67.5"/>
		<rect x="810" y="540" class="st1" width="67.5" height="67.5"/>
		<rect x="877.5" y="540" class="st1" width="67.5" height="67.5"/>
		<rect x="945" y="540" class="st0" width="67.5" height="67.5"/>
		<rect x="67.5" y="607.5" class="st0" width="67.5" height="67.5"/>
		<rect x="135" y="607.5" class="st1" width="67.5" height="67.5"/>
		<rect x="202.5" y="607.5" class="st1" width="67.5" height="67.5"/>
		<rect x="270" y="607.5" class="st1" width="67.5" height="67.5"/>
		<rect x="337.5" y="607.5" class="st1" width="67.5" height="67.5"/>
		<rect x="405" y="607.5" class="st1" width="67.5" height="67.5"/>
		<rect x="472.5" y="607.5" class="st1" width="67.5" height="67.5"/>
		<rect x="540" y="607.5" class="st1" width="67.5" height="67.5"/>
		<rect x="607.5" y="607.5" class="st1" width="67.5" height="67.5"/>
		<rect x="675" y="607.5" class="st1" width="67.5" height="67.5"/>
		<rect x="742.5" y="607.5" class="st1" width="67.5" height="67.5"/>
		<rect x="810" y="607.5" class="st0" width="67.5" height="67.5"/>
		<rect x="877.5" y="607.5" class="st0" width="67.5" height="67.5"/>
		<rect x="135" y="675" class="st0" width="67.5" height="67.5"/>
		<rect x="202.5" y="675" class="st0" width="67.5" height="67.5"/>
		<rect x="270" y="675" class="st0" width="67.5" height="67.5"/>
		<rect x="337.5" y="675" class="st0" width="67.5" height="67.5"/>
		<rect x="405" y="675" class="st0" width="67.5" height="67.5"/>
		<rect x="472.5" y="675" class="st0" width="67.5" height="67.5"/>
		<rect x="540" y="675" class="st0" width="67.5" height="67.5"/>
		<rect x="607.5" y="675" class="st0" width="67.5" height="67.5"/>
		<rect x="675" y="675" class="st1" width="67.5" height="67.5"/>
		<rect x="742.5" y="675" class="st1" width="67.5" height="67.5"/>
		<rect x="810" y="675" class="st0" width="67.5" height="67.5"/>
		<rect x="675" y="742.5" class="st0" width="67.5" height="67.5"/>
		<rect x="742.5" y="742.5" class="st1" width="67.5" height="67.5"/>
		<rect x="810" y="742.5" class="st0" width="67.5" height="67.5"/>
		<rect x="742.5" y="810" class="st0" width="67.5" height="67.5"/>
		<rect x="810" y="810" class="st0" width="67.5" height="67.5"/>
		<rect x="877.5" y="810" class="st0" width="67.5" height="67.5"/>
	</g>
</g>
</svg>
