<svg width="30" height="22" viewBox="0 0 30 22" fill="none" xmlns="http://www.w3.org/2000/svg">
<path d="M19.7942 15.0067C18.3429 14.9116 17.2019 13.711 17.2019 12.2434C17.2019 12.1944 17.2028 12.1454 17.2057 12.0964V12.1031C17.2028 12.057 17.2009 12.0032 17.2009 11.9485C17.2009 10.4837 18.3439 9.28697 19.7865 9.19956H19.7942C21.2436 9.27832 22.3885 10.4722 22.3885 11.9341C22.3885 11.9936 22.3866 12.0522 22.3827 12.1108V12.1031C22.3856 12.1511 22.3875 12.2078 22.3875 12.2645C22.3875 13.7273 21.2436 14.9231 19.801 15.0057H19.7933L19.7942 15.0067ZM10.222 15.0067C8.77069 14.9116 7.62963 13.711 7.62963 12.2434C7.62963 12.1944 7.63059 12.1454 7.63348 12.0964V12.1031C7.63059 12.057 7.62867 12.0032 7.62867 11.9485C7.62867 10.4837 8.77165 9.28697 10.2143 9.19956H10.222C11.6714 9.27832 12.8163 10.4722 12.8163 11.9341C12.8163 11.9936 12.8144 12.0522 12.8105 12.1108V12.1031C12.8134 12.1492 12.8153 12.203 12.8153 12.2578C12.8153 13.7225 11.6723 14.9193 10.2297 15.0067H10.222ZM24.9818 1.8499C23.2885 1.05078 21.3214 0.418773 19.2621 0.0528267L19.119 0.0316961C19.1142 0.0307356 19.1084 0.0297753 19.1027 0.0297753C19.0691 0.0297753 19.0402 0.0480245 19.0249 0.0749182C18.8001 0.469679 18.5562 0.96241 18.3362 1.46763L18.2949 1.57424C17.3056 1.41576 16.1645 1.32547 15.0023 1.32547C13.8402 1.32547 12.6991 1.41576 11.5859 1.58961L11.7098 1.57328C11.4505 0.968173 11.2027 0.476403 10.9289 0L10.9683 0.0739578C10.952 0.0461036 10.9222 0.0288144 10.8886 0.0288144C10.8838 0.0288144 10.878 0.0288148 10.8732 0.0297753C8.6708 0.416852 6.70372 1.04789 4.86535 1.90945L5.01038 1.84798C4.99405 1.8547 4.9806 1.86623 4.97196 1.88064C2.23072 5.76197 0.59021 10.5913 0.59021 15.8039C0.59021 16.675 0.636313 17.5347 0.725639 18.3818L0.716994 18.2762C0.719876 18.304 0.734283 18.3271 0.754454 18.3434C2.8099 19.8812 5.1996 21.1202 7.77851 21.9337L7.94756 21.9798C7.95524 21.9827 7.96484 21.9837 7.97445 21.9837C8.00518 21.9837 8.03208 21.9693 8.04841 21.9472C8.56227 21.2556 9.05116 20.4719 9.47473 19.6497L9.51988 19.5536C9.52564 19.5421 9.52948 19.5277 9.52948 19.5123C9.52948 19.473 9.50451 19.4403 9.46993 19.4268H9.46897C8.593 19.0888 7.85247 18.7286 7.14747 18.3156L7.22143 18.3559C7.19357 18.3396 7.17532 18.3098 7.17532 18.2762C7.17532 18.2464 7.18973 18.2195 7.21182 18.2032C7.36262 18.0898 7.51438 17.9727 7.65845 17.8536C7.67382 17.8411 7.69399 17.8334 7.71512 17.8334C7.72856 17.8334 7.74105 17.8363 7.75162 17.8411H7.75066C9.87142 18.8602 12.361 19.4557 14.9889 19.4557C17.6168 19.4557 20.1073 18.8602 22.3299 17.7969L22.2271 17.8411C22.2387 17.8353 22.2512 17.8324 22.2656 17.8324C22.2867 17.8324 22.3069 17.8401 22.3222 17.8526C22.4663 17.9717 22.6171 18.0908 22.7698 18.2032C22.7919 18.2205 22.8063 18.2474 22.8063 18.2771C22.8063 18.3108 22.7881 18.3396 22.7621 18.3559C22.1273 18.7353 21.3867 19.0945 20.6154 19.3913L20.5146 19.4259C20.48 19.4393 20.455 19.473 20.455 19.5114C20.455 19.5267 20.4589 19.5411 20.4656 19.5536C20.9468 20.4757 21.4347 21.2575 21.9745 22L21.9361 21.9453C21.9524 21.9683 21.9803 21.9837 22.0101 21.9837C22.0197 21.9837 22.0293 21.9818 22.0379 21.9798C24.7897 21.1231 27.1833 19.884 29.304 18.2992L29.2416 18.3444C29.2627 18.329 29.2762 18.305 29.2791 18.2781C29.3626 17.5251 29.4097 16.651 29.4097 15.7664C29.4097 10.5654 27.7653 5.74853 24.9693 1.80668L25.0193 1.8816C25.0116 1.86623 24.9982 1.85374 24.9828 1.84702L24.9818 1.8499Z" fill="#D6EA5E"/>
</svg>
