<?xml version="1.0" encoding="utf-8"?>
<!-- Generator: Adobe Illustrator 27.1.1, SVG Export Plug-In . SVG Version: 6.00 Build 0)  -->
<svg version="1.1" id="Layer_2_00000034770117299505737670000018184592390258482323_"
	 xmlns="http://www.w3.org/2000/svg" xmlns:xlink="http://www.w3.org/1999/xlink" x="0px" y="0px" viewBox="0 0 492.5 100"
	 style="enable-background:new 0 0 492.5 100;" xml:space="preserve">
<style type="text/css">
	.st0{fill:#D6EA5E;}
	.st1{fill:#3F5DBA;}
</style>
<g id="Layer_3">
	<g>
		<polygon class="st0" points="249.2,30.7 260.7,30.7 260.7,11.6 249.2,11.6 249.2,0 172.3,0 88.5,0 11.6,0 11.6,11.6 0,11.6 
			0,88.5 11.6,88.5 11.6,100 88.5,100 172.3,100 249.2,100 249.2,88.5 260.7,88.5 260.7,46.2 249.2,46.2 249.2,34.6 		"/>
		<g>
			<polygon class="st1" points="84.7,3.8 15.4,3.8 15.4,15.4 3.8,15.4 3.8,84.7 15.4,84.7 15.4,96.2 84.7,96.2 84.7,84.7 96.2,84.7 
				96.2,50 84.7,50 84.7,38.5 38.5,38.5 38.5,61.5 73.1,61.5 73.1,73.1 26.9,73.1 26.9,26.9 96.2,26.9 96.2,15.4 84.7,15.4 			"/>
			<polygon class="st1" points="245.4,3.8 176.1,3.8 176.1,15.4 164.5,15.4 164.5,84.7 176.1,84.7 176.1,96.2 245.4,96.2 
				245.4,84.7 256.9,84.7 256.9,50 245.4,50 245.4,38.5 199.2,38.5 199.2,61.5 233.8,61.5 233.8,73.1 187.6,73.1 187.6,26.9 
				256.9,26.9 256.9,15.4 245.4,15.4 			"/>
			<g>
				<polygon class="st1" points="130.4,3.8 118.8,3.8 118.8,26.9 141.9,26.9 141.9,15.4 				"/>
				<polygon class="st1" points="107.3,50 107.3,73.1 118.2,73.1 118.8,96.2 141.9,96.2 141.9,73.1 153.5,73.1 153.5,50 141.9,38.5 
					118.8,38.5 				"/>
			</g>
		</g>
	</g>
</g>
<g>
	<g>
		<polygon class="st1" points="284.6,44.2 273.1,44.2 273.1,21.1 319.3,21.1 319.3,55.8 296.2,55.8 296.2,44.2 307.7,44.2 
			307.7,32.7 284.6,32.7 		"/>
		<polygon class="st1" points="296.2,55.8 284.6,55.8 284.6,67.3 273.1,67.3 273.1,78.9 319.3,78.9 319.3,67.3 296.2,67.3 		"/>
	</g>
	<g>
		<polygon class="st1" points="330.8,21.1 342.4,21.1 342.4,44.2 365.5,44.2 365.5,55.8 342.4,55.8 342.4,78.9 330.8,78.9 		"/>
		<rect x="365.5" y="55.8" class="st1" width="11.6" height="23.1"/>
	</g>
	<g>
		<rect x="388.6" y="44.2" class="st1" width="11.6" height="34.6"/>
		<rect x="388.6" y="21.1" class="st1" width="11.6" height="11.6"/>
	</g>
	<g>
		<polygon class="st1" points="411.6,44.2 411.6,78.9 423.2,78.9 423.2,67.3 434.8,67.3 434.8,55.8 423.2,55.8 423.2,44.2 		"/>
		<rect x="434.8" y="44.2" class="st1" width="11.6" height="11.6"/>
	</g>
	<polygon class="st1" points="492.5,44.2 457.8,44.2 457.8,78.9 492.5,78.9 492.5,67.3 480.9,67.3 480.9,55.8 492.5,55.8 	"/>
</g>
</svg>
