<?xml version="1.0" encoding="utf-8"?>
<!-- Generator: Adobe Illustrator 27.1.1, SVG Export Plug-In . SVG Version: 6.00 Build 0)  -->
<svg version="1.1" id="Layer_2_00000013888847940825230960000015008852042992155312_"
	 xmlns="http://www.w3.org/2000/svg" xmlns:xlink="http://www.w3.org/1999/xlink" x="0px" y="0px" viewBox="0 0 648.9 648.9"
	 style="enable-background:new 0 0 648.9 648.9;" xml:space="preserve">
<style type="text/css">
	.st0{fill:#D6EA5E;}
	.st1{fill:#3F5DBA;}
</style>
<g id="Layer_3">
	<g>
		<polygon class="st0" points="67.5,0 67.5,67.5 0,67.5 0,502.5 146.4,648.9 581.4,648.9 581.4,581.4 648.9,581.4 648.9,348.9 
			543.6,243.9 648.9,243.9 648.9,146.4 502.5,0 		"/>
		<polygon class="st1" points="487.5,15 82.5,15 82.5,82.5 15,82.5 15,487.5 82.5,487.5 82.5,555 487.5,555 487.5,487.5 555,487.5 
			555,285 487.5,285 487.5,217.5 217.5,217.5 217.5,352.5 420,352.5 420,420 150,420 150,150 555,150 555,82.5 487.5,82.5 		"/>
	</g>
</g>
</svg>
