<?xml version="1.0" encoding="utf-8"?>
<!-- Generator: Adobe Illustrator 27.1.1, SVG Export Plug-In . SVG Version: 6.00 Build 0)  -->
<svg version="1.1" id="Layer_2_00000034770117299505737670000018184592390258482323_"
	 xmlns="http://www.w3.org/2000/svg" xmlns:xlink="http://www.w3.org/1999/xlink" x="0px" y="0px" viewBox="0 0 880 337.5"
	 style="enable-background:new 0 0 880 337.5;" xml:space="preserve">
<style type="text/css">
	.st0{fill:#D6EA5E;}
	.st1{fill:#3F5DBA;}
</style>
<g id="Layer_3">
	<g>
		<polygon class="st0" points="841,103.7 880,103.7 880,39 841,39 841,0 581.4,0 298.6,0 39,0 39,39 0,39 0,298.6 39,298.6 
			39,337.5 298.6,337.5 581.4,337.5 841,337.5 841,298.6 880,298.6 880,155.9 841,155.9 841,116.9 		"/>
		<g>
			<polygon class="st1" points="285.7,12.9 51.9,12.9 51.9,51.9 12.9,51.9 12.9,285.7 51.9,285.7 51.9,324.6 285.7,324.6 
				285.7,285.7 324.6,285.7 324.6,168.8 285.7,168.8 285.7,129.8 129.8,129.8 129.8,207.7 246.7,207.7 246.7,246.7 90.8,246.7 
				90.8,90.8 324.6,90.8 324.6,51.9 285.7,51.9 			"/>
			<polygon class="st1" points="828.1,12.9 594.3,12.9 594.3,51.9 555.3,51.9 555.3,285.7 594.3,285.7 594.3,324.6 828.1,324.6 
				828.1,285.7 867.1,285.7 867.1,168.8 828.1,168.8 828.1,129.8 672.2,129.8 672.2,207.7 789.1,207.7 789.1,246.7 633.2,246.7 
				633.2,90.8 867.1,90.8 867.1,51.9 828.1,51.9 			"/>
			<g>
				<polygon class="st1" points="440,12.9 401,12.9 401,90.8 479,90.8 479,51.9 				"/>
				<polygon class="st1" points="362,168.8 362,246.7 399,246.7 401,324.6 479,324.6 479,246.7 517.9,246.7 517.9,168.8 479,129.8 
					401,129.8 				"/>
			</g>
		</g>
	</g>
</g>
</svg>
