<svg width="26" height="24" viewBox="0 0 26 24" fill="none" xmlns="http://www.w3.org/2000/svg">
<path d="M1.52795 24H6.47195H6.48795V8.01599H1.52795V24Z" fill="#3F5DBA"/>
<path d="M3.97597 0C2.34397 0 1.04797 1.328 1.04797 2.96C1.04797 4.592 2.37597 5.92 3.97597 5.92C5.57597 5.92 6.88797 4.592 6.88797 2.96C6.88797 1.328 5.62397 0 3.97597 0Z" fill="#3F5DBA"/>
<path d="M19.208 7.53601C15.816 7.53601 14.392 10.176 14.392 10.176V8.01601H9.64001V24H14.36V15.616C14.36 13.344 15.416 12.016 17.384 12.016C19.192 12.016 20.072 13.312 20.072 15.616V24H25V13.888C25.016 9.60001 22.6 7.53601 19.208 7.53601Z" fill="#3F5DBA"/>
</svg>
