<?xml version="1.0" encoding="UTF-8"?>
<svg id="Layer_2" data-name="Layer 2" xmlns="http://www.w3.org/2000/svg" viewBox="0 0 810 540">
  <defs>
    <style>
      .cls-1 {
        fill: #d6ea5e;
      }

      .cls-2 {
        fill: #3f5dba;
      }
    </style>
  </defs>
  <g id="Layer_5" data-name="Layer 5">
    <g>
      <rect class="cls-1" x="67.5" width="67.5" height="67.5"/>
      <rect class="cls-1" x="135" width="67.5" height="67.5"/>
      <rect class="cls-1" x="202.5" width="67.5" height="67.5"/>
      <rect class="cls-1" x="270" width="67.5" height="67.5"/>
      <rect class="cls-1" x="337.5" width="67.5" height="67.5"/>
      <rect class="cls-1" x="405" width="67.5" height="67.5"/>
      <rect class="cls-1" x="472.5" width="67.5" height="67.5"/>
      <rect class="cls-1" x="540" width="67.5" height="67.5"/>
      <rect class="cls-1" x="607.5" width="67.5" height="67.5"/>
      <rect class="cls-1" x="675" width="67.5" height="67.5"/>
      <rect class="cls-1" y="67.5" width="67.5" height="67.5"/>
      <rect class="cls-2" x="67.5" y="67.5" width="67.5" height="67.5"/>
      <rect class="cls-1" x="135" y="67.5" width="67.5" height="67.5"/>
      <rect class="cls-1" x="202.5" y="67.5" width="67.5" height="67.5"/>
      <rect class="cls-1" x="270" y="67.5" width="67.5" height="67.5"/>
      <rect class="cls-1" x="337.5" y="67.5" width="67.5" height="67.5"/>
      <rect class="cls-1" x="405" y="67.5" width="67.5" height="67.5"/>
      <rect class="cls-1" x="472.5" y="67.5" width="67.5" height="67.5"/>
      <rect class="cls-1" x="540" y="67.5" width="67.5" height="67.5"/>
      <rect class="cls-1" x="607.5" y="67.5" width="67.5" height="67.5"/>
      <rect class="cls-2" x="675" y="67.5" width="67.5" height="67.5"/>
      <rect class="cls-1" x="742.5" y="67.5" width="67.5" height="67.5"/>
      <rect class="cls-1" y="135" width="67.5" height="67.5"/>
      <rect class="cls-2" x="67.5" y="135" width="67.5" height="67.5"/>
      <rect class="cls-2" x="135" y="135" width="67.5" height="67.5"/>
      <rect class="cls-1" x="202.5" y="135" width="67.5" height="67.5"/>
      <rect class="cls-1" x="270" y="135" width="67.5" height="67.5"/>
      <rect class="cls-1" x="337.5" y="135" width="67.5" height="67.5"/>
      <rect class="cls-1" x="405" y="135" width="67.5" height="67.5"/>
      <rect class="cls-1" x="472.5" y="135" width="67.5" height="67.5"/>
      <rect class="cls-1" x="540" y="135" width="67.5" height="67.5"/>
      <rect class="cls-2" x="607.5" y="135" width="67.5" height="67.5"/>
      <rect class="cls-2" x="675" y="135" width="67.5" height="67.5"/>
      <rect class="cls-1" x="742.5" y="135" width="67.5" height="67.5"/>
      <rect class="cls-1" y="202.5" width="67.5" height="67.5"/>
      <rect class="cls-2" x="67.5" y="202.5" width="67.5" height="67.5"/>
      <rect class="cls-2" x="135" y="202.5" width="67.5" height="67.5"/>
      <rect class="cls-2" x="202.5" y="202.5" width="67.5" height="67.5"/>
      <rect class="cls-2" x="270" y="202.5" width="67.5" height="67.5"/>
      <rect class="cls-1" x="337.5" y="202.5" width="67.5" height="67.5"/>
      <rect class="cls-1" x="405" y="202.5" width="67.5" height="67.5"/>
      <rect class="cls-2" x="472.5" y="202.5" width="67.5" height="67.5"/>
      <rect class="cls-2" x="540" y="202.5" width="67.5" height="67.5"/>
      <rect class="cls-2" x="607.5" y="202.5" width="67.5" height="67.5"/>
      <rect class="cls-2" x="675" y="202.5" width="67.5" height="67.5"/>
      <rect class="cls-1" x="742.5" y="202.5" width="67.5" height="67.5"/>
      <rect class="cls-1" y="270" width="67.5" height="67.5"/>
      <rect class="cls-2" x="67.5" y="270" width="67.5" height="67.5"/>
      <rect class="cls-2" x="135" y="270" width="67.5" height="67.5"/>
      <rect class="cls-2" x="202.5" y="270" width="67.5" height="67.5"/>
      <rect class="cls-2" x="270" y="270" width="67.5" height="67.5"/>
      <rect class="cls-2" x="337.5" y="270" width="67.5" height="67.5"/>
      <rect class="cls-2" x="405" y="270" width="67.5" height="67.5"/>
      <rect class="cls-2" x="472.5" y="270" width="67.5" height="67.5"/>
      <rect class="cls-2" x="540" y="270" width="67.5" height="67.5"/>
      <rect class="cls-2" x="607.5" y="270" width="67.5" height="67.5"/>
      <rect class="cls-2" x="675" y="270" width="67.5" height="67.5"/>
      <rect class="cls-1" x="742.5" y="270" width="67.5" height="67.5"/>
      <rect class="cls-1" y="337.5" width="67.5" height="67.5"/>
      <rect class="cls-2" x="67.5" y="337.5" width="67.5" height="67.5"/>
      <rect class="cls-2" x="135" y="337.5" width="67.5" height="67.5"/>
      <rect class="cls-2" x="202.5" y="337.5" width="67.5" height="67.5"/>
      <rect class="cls-2" x="270" y="337.5" width="67.5" height="67.5"/>
      <rect class="cls-2" x="337.5" y="337.5" width="67.5" height="67.5"/>
      <rect class="cls-2" x="405" y="337.5" width="67.5" height="67.5"/>
      <rect class="cls-1" x="472.5" y="337.5" width="67.5" height="67.5"/>
      <rect class="cls-1" x="540" y="337.5" width="67.5" height="67.5"/>
      <rect class="cls-1" x="607.5" y="337.5" width="67.5" height="67.5"/>
      <rect class="cls-2" x="675" y="337.5" width="67.5" height="67.5"/>
      <rect class="cls-1" x="742.5" y="337.5" width="67.5" height="67.5"/>
      <rect class="cls-1" y="405" width="67.5" height="67.5"/>
      <rect class="cls-2" x="67.5" y="405" width="67.5" height="67.5"/>
      <rect class="cls-2" x="135" y="405" width="67.5" height="67.5"/>
      <rect class="cls-2" x="202.5" y="405" width="67.5" height="67.5"/>
      <rect class="cls-2" x="270" y="405" width="67.5" height="67.5"/>
      <rect class="cls-2" x="337.5" y="405" width="67.5" height="67.5"/>
      <rect class="cls-2" x="405" y="405" width="67.5" height="67.5"/>
      <rect class="cls-2" x="472.5" y="405" width="67.5" height="67.5"/>
      <rect class="cls-2" x="540" y="405" width="67.5" height="67.5"/>
      <rect class="cls-2" x="607.5" y="405" width="67.5" height="67.5"/>
      <rect class="cls-2" x="675" y="405" width="67.5" height="67.5"/>
      <rect class="cls-1" x="742.5" y="405" width="67.5" height="67.5"/>
      <rect class="cls-1" x="67.5" y="472.5" width="67.5" height="67.5"/>
      <rect class="cls-1" x="135" y="472.5" width="67.5" height="67.5"/>
      <rect class="cls-1" x="202.5" y="472.5" width="67.5" height="67.5"/>
      <rect class="cls-1" x="270" y="472.5" width="67.5" height="67.5"/>
      <rect class="cls-1" x="337.5" y="472.5" width="67.5" height="67.5"/>
      <rect class="cls-1" x="405" y="472.5" width="67.5" height="67.5"/>
      <rect class="cls-1" x="472.5" y="472.5" width="67.5" height="67.5"/>
      <rect class="cls-1" x="540" y="472.5" width="67.5" height="67.5"/>
      <rect class="cls-1" x="607.5" y="472.5" width="67.5" height="67.5"/>
      <rect class="cls-1" x="675" y="472.5" width="67.5" height="67.5"/>
    </g>
  </g>
</svg>