<?xml version="1.0" encoding="utf-8"?>
<!-- Generator: Adobe Illustrator 27.1.1, SVG Export Plug-In . SVG Version: 6.00 Build 0)  -->
<svg version="1.1" id="Layer_1" xmlns="http://www.w3.org/2000/svg" xmlns:xlink="http://www.w3.org/1999/xlink" x="0px" y="0px"
	 viewBox="0 0 24 24" style="enable-background:new 0 0 24 24;" xml:space="preserve">
<style type="text/css">
	.st0{fill:#3F5DBA;}
	.st1{fill:#D6EA5E;}
</style>
<rect class="st0" width="24" height="24"/>
<path class="st1" d="M6,14c-0.6,0-1-0.2-1.4-0.6C4.2,13,4,12.6,4,12s0.2-1,0.6-1.4C5,10.2,5.4,10,6,10s1,0.2,1.4,0.6
	C7.8,11,8,11.4,8,12s-0.2,1-0.6,1.4C7,13.8,6.6,14,6,14z M12,14c-0.6,0-1-0.2-1.4-0.6C10.2,13,10,12.6,10,12s0.2-1,0.6-1.4
	C11,10.2,11.4,10,12,10s1,0.2,1.4,0.6C13.8,11,14,11.4,14,12s-0.2,1-0.6,1.4C13,13.8,12.6,14,12,14z M18,14c-0.5,0-1-0.2-1.4-0.6
	C16.2,13,16,12.6,16,12s0.2-1,0.6-1.4C17,10.2,17.5,10,18,10s1,0.2,1.4,0.6C19.8,11,20,11.4,20,12s-0.2,1-0.6,1.4
	C19,13.8,18.5,14,18,14z"/>
</svg>
